<mxfile host="app.diagrams.net" agent="Mozilla/5.0 (Windows NT 10.0; Win64; x64) AppleWebKit/537.36 (KHTML, like Gecko) Chrome/136.0.0.0 Safari/537.36" version="27.0.4">
  <diagram name="Page-1" id="2YBvvXClWsGukQMizWep">
    <mxGraphModel dx="2339" dy="863" grid="1" gridSize="10" guides="1" tooltips="1" connect="1" arrows="1" fold="1" page="1" pageScale="1" pageWidth="850" pageHeight="1100" math="0" shadow="0">
      <root>
        <mxCell id="0" />
        <mxCell id="1" parent="0" />
        <mxCell id="yS02FpyWwdBML2CH-_gt-21" value="" style="edgeStyle=elbowEdgeStyle;rounded=0;orthogonalLoop=1;jettySize=auto;html=1;elbow=vertical;curved=0;dashed=1;endArrow=open;endFill=0;" edge="1" parent="1" target="yS02FpyWwdBML2CH-_gt-23">
          <mxGeometry relative="1" as="geometry">
            <mxPoint x="284.6304347826083" y="120" as="sourcePoint" />
            <mxPoint x="630" y="120" as="targetPoint" />
          </mxGeometry>
        </mxCell>
        <mxCell id="yS02FpyWwdBML2CH-_gt-48" value="ubicación" style="edgeLabel;html=1;align=center;verticalAlign=middle;resizable=0;points=[];" vertex="1" connectable="0" parent="yS02FpyWwdBML2CH-_gt-21">
          <mxGeometry x="-0.1114" y="1" relative="1" as="geometry">
            <mxPoint x="150" y="-9" as="offset" />
          </mxGeometry>
        </mxCell>
        <mxCell id="aM9ryv3xv72pqoxQDRHE-5" value=":Libro" style="shape=umlLifeline;perimeter=lifelinePerimeter;whiteSpace=wrap;html=1;container=0;dropTarget=0;collapsible=0;recursiveResize=0;outlineConnect=0;portConstraint=eastwest;newEdgeStyle={&quot;edgeStyle&quot;:&quot;elbowEdgeStyle&quot;,&quot;elbow&quot;:&quot;vertical&quot;,&quot;curved&quot;:0,&quot;rounded&quot;:0};" parent="1" vertex="1">
          <mxGeometry x="235" y="40" width="100" height="270" as="geometry" />
        </mxCell>
        <mxCell id="y6Rqip2g0ZikaZNx4Aov-42" value=":Estantería" style="shape=umlLifeline;perimeter=lifelinePerimeter;whiteSpace=wrap;html=1;container=1;dropTarget=0;collapsible=0;recursiveResize=0;outlineConnect=0;portConstraint=eastwest;newEdgeStyle={&quot;curved&quot;:0,&quot;rounded&quot;:0};" parent="1" vertex="1">
          <mxGeometry x="590" y="40" width="100" height="280" as="geometry" />
        </mxCell>
        <mxCell id="yS02FpyWwdBML2CH-_gt-23" value="" style="html=1;points=[[0,0,0,0,5],[0,1,0,0,-5],[1,0,0,0,5],[1,1,0,0,-5]];perimeter=orthogonalPerimeter;outlineConnect=0;targetShapes=umlLifeline;portConstraint=eastwest;newEdgeStyle={&quot;curved&quot;:0,&quot;rounded&quot;:0};" vertex="1" parent="y6Rqip2g0ZikaZNx4Aov-42">
          <mxGeometry x="45" y="70" width="10" height="80" as="geometry" />
        </mxCell>
        <mxCell id="y6Rqip2g0ZikaZNx4Aov-47" value="elegir libro" style="shape=umlFrame;whiteSpace=wrap;html=1;pointerEvents=0;width=80;height=15;" parent="1" vertex="1">
          <mxGeometry x="-10" y="130" width="310" height="30" as="geometry" />
        </mxCell>
        <mxCell id="y6Rqip2g0ZikaZNx4Aov-48" value=":Librería" style="shape=umlLifeline;perimeter=lifelinePerimeter;whiteSpace=wrap;html=1;container=1;dropTarget=0;collapsible=0;recursiveResize=0;outlineConnect=0;portConstraint=eastwest;newEdgeStyle={&quot;curved&quot;:0,&quot;rounded&quot;:0};" parent="1" vertex="1">
          <mxGeometry x="120" y="40" width="100" height="300" as="geometry" />
        </mxCell>
        <mxCell id="yS02FpyWwdBML2CH-_gt-27" value="" style="html=1;points=[[0,0,0,0,5],[0,1,0,0,-5],[1,0,0,0,5],[1,1,0,0,-5]];perimeter=orthogonalPerimeter;outlineConnect=0;targetShapes=umlLifeline;portConstraint=eastwest;newEdgeStyle={&quot;curved&quot;:0,&quot;rounded&quot;:0};" vertex="1" parent="y6Rqip2g0ZikaZNx4Aov-48">
          <mxGeometry x="45" y="200" width="10" height="20" as="geometry" />
        </mxCell>
        <mxCell id="sJZ5M7XON1pqCjrLgMFI-1" value="" style="html=1;verticalAlign=bottom;labelBackgroundColor=none;endArrow=open;endFill=0;dashed=1;rounded=0;" parent="1" edge="1">
          <mxGeometry width="160" relative="1" as="geometry">
            <mxPoint x="-610" y="918" as="sourcePoint" />
            <mxPoint x="-450" y="918" as="targetPoint" />
          </mxGeometry>
        </mxCell>
        <mxCell id="sJZ5M7XON1pqCjrLgMFI-8" value="mensaje asíncrono" style="edgeLabel;html=1;align=center;verticalAlign=middle;resizable=0;points=[];" parent="sJZ5M7XON1pqCjrLgMFI-1" vertex="1" connectable="0">
          <mxGeometry x="0.0034" y="-1" relative="1" as="geometry">
            <mxPoint y="9" as="offset" />
          </mxGeometry>
        </mxCell>
        <mxCell id="sJZ5M7XON1pqCjrLgMFI-2" value="" style="html=1;verticalAlign=bottom;labelBackgroundColor=none;endArrow=block;endFill=1;rounded=0;" parent="1" edge="1">
          <mxGeometry width="160" relative="1" as="geometry">
            <mxPoint x="-610" y="878" as="sourcePoint" />
            <mxPoint x="-450" y="878" as="targetPoint" />
          </mxGeometry>
        </mxCell>
        <mxCell id="sJZ5M7XON1pqCjrLgMFI-7" value="mensaje sincrono" style="edgeLabel;html=1;align=center;verticalAlign=middle;resizable=0;points=[];" parent="sJZ5M7XON1pqCjrLgMFI-2" vertex="1" connectable="0">
          <mxGeometry x="-0.419" y="1" relative="1" as="geometry">
            <mxPoint x="34" y="11" as="offset" />
          </mxGeometry>
        </mxCell>
        <mxCell id="sJZ5M7XON1pqCjrLgMFI-3" value="" style="ellipse;html=1;fillColor=strokeColor;" parent="1" vertex="1">
          <mxGeometry x="-400" y="918" width="4" height="4" as="geometry" />
        </mxCell>
        <mxCell id="sJZ5M7XON1pqCjrLgMFI-4" value="" style="endArrow=open;html=1;rounded=0;align=center;verticalAlign=top;endFill=0;labelBackgroundColor=none;endSize=6;" parent="1" source="sJZ5M7XON1pqCjrLgMFI-3" edge="1">
          <mxGeometry relative="1" as="geometry">
            <mxPoint x="-236" y="920" as="targetPoint" />
          </mxGeometry>
        </mxCell>
        <mxCell id="sJZ5M7XON1pqCjrLgMFI-12" value="mensaje encontrado" style="edgeLabel;html=1;align=center;verticalAlign=middle;resizable=0;points=[];" parent="sJZ5M7XON1pqCjrLgMFI-4" vertex="1" connectable="0">
          <mxGeometry x="-0.1457" y="-1" relative="1" as="geometry">
            <mxPoint x="8" y="7" as="offset" />
          </mxGeometry>
        </mxCell>
        <mxCell id="sJZ5M7XON1pqCjrLgMFI-5" value="" style="ellipse;html=1;fillColor=strokeColor;" parent="1" vertex="1">
          <mxGeometry x="-250" y="868" width="4" height="4" as="geometry" />
        </mxCell>
        <mxCell id="sJZ5M7XON1pqCjrLgMFI-6" value="" style="endArrow=open;html=1;rounded=0;align=center;verticalAlign=top;endFill=0;labelBackgroundColor=none;endSize=6;" parent="1" target="sJZ5M7XON1pqCjrLgMFI-5" edge="1">
          <mxGeometry relative="1" as="geometry">
            <mxPoint x="-410" y="870" as="sourcePoint" />
          </mxGeometry>
        </mxCell>
        <mxCell id="sJZ5M7XON1pqCjrLgMFI-9" value="mensaje perdido" style="edgeLabel;html=1;align=center;verticalAlign=middle;resizable=0;points=[];" parent="sJZ5M7XON1pqCjrLgMFI-6" vertex="1" connectable="0">
          <mxGeometry x="-0.0569" y="1" relative="1" as="geometry">
            <mxPoint x="5" y="9" as="offset" />
          </mxGeometry>
        </mxCell>
        <mxCell id="sJZ5M7XON1pqCjrLgMFI-16" value="" style="swimlane;startSize=0;" parent="1" vertex="1">
          <mxGeometry x="-630" y="820" width="470" height="168" as="geometry">
            <mxRectangle x="-410" y="312" width="50" height="40" as="alternateBounds" />
          </mxGeometry>
        </mxCell>
        <mxCell id="sJZ5M7XON1pqCjrLgMFI-30" value="" style="shape=umlDestroy;whiteSpace=wrap;html=1;strokeWidth=3;targetShapes=umlLifeline;" parent="1" vertex="1">
          <mxGeometry x="270" y="300" width="30" height="30" as="geometry" />
        </mxCell>
        <mxCell id="sJZ5M7XON1pqCjrLgMFI-35" value="" style="shape=umlDestroy;whiteSpace=wrap;html=1;strokeWidth=3;targetShapes=umlLifeline;" parent="1" vertex="1">
          <mxGeometry x="625" y="300" width="30" height="30" as="geometry" />
        </mxCell>
        <mxCell id="yS02FpyWwdBML2CH-_gt-30" value="&lt;div&gt;&lt;br&gt;&lt;/div&gt;&lt;div&gt;&lt;br&gt;&lt;/div&gt;&lt;div&gt;&lt;span style=&quot;background-color: transparent; color: light-dark(rgb(0, 0, 0), rgb(255, 255, 255));&quot;&gt;&lt;br&gt;&lt;/span&gt;&lt;/div&gt;&lt;div&gt;&lt;span style=&quot;background-color: transparent; color: light-dark(rgb(0, 0, 0), rgb(255, 255, 255));&quot;&gt;&lt;br&gt;&lt;/span&gt;&lt;/div&gt;&lt;div&gt;&lt;span style=&quot;background-color: transparent; color: light-dark(rgb(0, 0, 0), rgb(255, 255, 255));&quot;&gt;&lt;br&gt;&lt;/span&gt;&lt;/div&gt;&lt;div&gt;&lt;span style=&quot;background-color: transparent; color: light-dark(rgb(0, 0, 0), rgb(255, 255, 255));&quot;&gt;Cliente&lt;/span&gt;&lt;/div&gt;" style="shape=umlLifeline;perimeter=lifelinePerimeter;whiteSpace=wrap;html=1;container=1;dropTarget=0;collapsible=0;recursiveResize=0;outlineConnect=0;portConstraint=eastwest;newEdgeStyle={&quot;curved&quot;:0,&quot;rounded&quot;:0};participant=umlActor;size=40;" vertex="1" parent="1">
          <mxGeometry y="40" width="20" height="300" as="geometry" />
        </mxCell>
        <mxCell id="yS02FpyWwdBML2CH-_gt-28" value="compra" style="html=1;verticalAlign=bottom;endArrow=block;curved=0;rounded=0;entryX=0;entryY=0;entryDx=0;entryDy=5;" edge="1" parent="1">
          <mxGeometry relative="1" as="geometry">
            <mxPoint x="9.630434782608745" y="240" as="sourcePoint" />
            <mxPoint x="164.99999999999977" y="240" as="targetPoint" />
          </mxGeometry>
        </mxCell>
        <mxCell id="yS02FpyWwdBML2CH-_gt-31" value="&lt;div&gt;&lt;span style=&quot;background-color: transparent; color: light-dark(rgb(0, 0, 0), rgb(255, 255, 255));&quot;&gt;&lt;span style=&quot;white-space: pre;&quot;&gt;&#x9;&lt;/span&gt;&lt;span style=&quot;white-space: pre;&quot;&gt;&#x9;&lt;/span&gt;Autor&lt;/span&gt;&lt;/div&gt;" style="shape=umlLifeline;perimeter=lifelinePerimeter;whiteSpace=wrap;html=1;container=1;dropTarget=0;collapsible=0;recursiveResize=0;outlineConnect=0;portConstraint=eastwest;newEdgeStyle={&quot;curved&quot;:0,&quot;rounded&quot;:0};participant=umlActor;size=50;" vertex="1" parent="1">
          <mxGeometry x="460" y="40" width="27.5" height="290" as="geometry" />
        </mxCell>
        <mxCell id="yS02FpyWwdBML2CH-_gt-49" value="" style="shape=umlDestroy;whiteSpace=wrap;html=1;strokeWidth=3;targetShapes=umlLifeline;" vertex="1" parent="yS02FpyWwdBML2CH-_gt-31">
          <mxGeometry x="-2.5" y="260" width="30" height="30" as="geometry" />
        </mxCell>
        <mxCell id="yS02FpyWwdBML2CH-_gt-50" value="" style="html=1;points=[[0,0,0,0,5],[0,1,0,0,-5],[1,0,0,0,5],[1,1,0,0,-5]];perimeter=orthogonalPerimeter;outlineConnect=0;targetShapes=umlLifeline;portConstraint=eastwest;newEdgeStyle={&quot;curved&quot;:0,&quot;rounded&quot;:0};" vertex="1" parent="yS02FpyWwdBML2CH-_gt-31">
          <mxGeometry x="7.5" y="50" width="10" height="80" as="geometry" />
        </mxCell>
        <mxCell id="yS02FpyWwdBML2CH-_gt-29" value="vende" style="html=1;verticalAlign=bottom;endArrow=open;dashed=1;endSize=8;curved=0;rounded=0;exitX=0;exitY=1;exitDx=0;exitDy=-5;" edge="1" source="yS02FpyWwdBML2CH-_gt-27" parent="1">
          <mxGeometry relative="1" as="geometry">
            <mxPoint x="10" y="255" as="targetPoint" />
          </mxGeometry>
        </mxCell>
        <mxCell id="yS02FpyWwdBML2CH-_gt-42" value="&amp;lt;&amp;lt;create&amp;gt;&amp;gt;" style="html=1;verticalAlign=bottom;endArrow=open;dashed=1;endSize=8;curved=0;rounded=0;" edge="1" parent="1">
          <mxGeometry relative="1" as="geometry">
            <mxPoint x="460" y="50" as="sourcePoint" />
            <mxPoint x="340" y="50" as="targetPoint" />
          </mxGeometry>
        </mxCell>
        <mxCell id="yS02FpyWwdBML2CH-_gt-43" value="ref" style="shape=umlFrame;whiteSpace=wrap;html=1;pointerEvents=0;width=30;height=20;" vertex="1" parent="1">
          <mxGeometry x="-30" y="200" width="230" height="80" as="geometry" />
        </mxCell>
        <mxCell id="yS02FpyWwdBML2CH-_gt-44" value="consulta el libro" style="html=1;verticalAlign=bottom;startArrow=circle;startFill=1;endArrow=classic;startSize=6;endSize=8;curved=0;rounded=0;endFill=1;" edge="1" parent="1" target="aM9ryv3xv72pqoxQDRHE-5">
          <mxGeometry x="0.1799" width="80" relative="1" as="geometry">
            <mxPoint y="150" as="sourcePoint" />
            <mxPoint x="80" y="150" as="targetPoint" />
            <mxPoint as="offset" />
          </mxGeometry>
        </mxCell>
        <mxCell id="yS02FpyWwdBML2CH-_gt-53" value="explicar" style="html=1;verticalAlign=bottom;endArrow=open;dashed=1;endSize=8;curved=0;rounded=0;exitX=0;exitY=0;exitDx=0;exitDy=5;exitPerimeter=0;" edge="1" parent="1" source="yS02FpyWwdBML2CH-_gt-50" target="yS02FpyWwdBML2CH-_gt-30">
          <mxGeometry x="-0.6178" relative="1" as="geometry">
            <mxPoint x="340" y="100" as="sourcePoint" />
            <mxPoint x="260" y="100" as="targetPoint" />
            <mxPoint as="offset" />
          </mxGeometry>
        </mxCell>
      </root>
    </mxGraphModel>
  </diagram>
</mxfile>
